<?xml version="1.0" encoding="UTF-8" standalone="no"?>
<!-- Created with Inkscape (http://www.inkscape.org/) -->

<svg
   width="16"
   height="16"
   viewBox="0 0 16 16"
   version="1.1"
   id="svg1"
   inkscape:version="1.4.2 (ebf0e940, 2025-05-08)"
   sodipodi:docname="icon-mask.svg"
   xmlns:inkscape="http://www.inkscape.org/namespaces/inkscape"
   xmlns:sodipodi="http://sodipodi.sourceforge.net/DTD/sodipodi-0.dtd"
   xmlns="http://www.w3.org/2000/svg"
   xmlns:svg="http://www.w3.org/2000/svg">
  <sodipodi:namedview
     id="namedview1"
     pagecolor="#ffffff"
     bordercolor="#000000"
     borderopacity="0.25"
     inkscape:showpageshadow="2"
     inkscape:pageopacity="0.0"
     inkscape:pagecheckerboard="0"
     inkscape:deskcolor="#d1d1d1"
     inkscape:document-units="mm"
     inkscape:zoom="13.437628"
     inkscape:cx="15.441714"
     inkscape:cy="12.948714"
     inkscape:window-width="1176"
     inkscape:window-height="593"
     inkscape:window-x="365"
     inkscape:window-y="113"
     inkscape:window-maximized="0"
     inkscape:current-layer="layer1" />
  <defs
     id="defs1" />
  <g
     inkscape:label="Layer 1"
     inkscape:groupmode="layer"
     id="layer1">
    <path
       style="fill:#1a1a1a;fill-opacity:1;stroke:none;stroke-width:0.0215957;stroke-linecap:round;stroke-linejoin:round"
       d="m 0.10517524,14.979735 c 0,-0.337311 0,-0.674622 0,-1.011934 0.53994691,-0.231173 1.27957036,-0.361871 1.54378966,0.308086 0.426502,0.318038 0.9710247,-0.22864 0.3860925,-0.523546 -0.1084593,-0.655842 1.1843974,-0.0908 0.730297,0.456402 0.03989,0.869784 0.9572195,0.374104 1.0782081,-0.101153 0.6338458,0.302863 0.3542865,1.227575 1.0494299,1.518449 0.2340086,0.187258 0.9194351,0.485119 0.4141448,0.01875 -0.5527764,-0.42714 -0.9513624,-1.15898 -0.4808631,-1.70979 -0.1441003,-0.544254 -1.6331192,-0.24789 -1.0107932,-0.867683 0.5831895,0.199172 1.1123675,-0.521469 1.2742072,-0.910759 0.3881323,0.110776 0.5050614,1.162892 0.9798782,0.561505 0.4710126,0.460843 1.0996919,0.06108 1.5075503,0.696709 1.3970744,1.458733 3.4230794,2.151375 5.4078124,2.243308 0.424102,-0.193515 1.274641,-0.446711 1.44213,-0.572974 C 13.488495,15.069945 12.556,15.388193 11.61898,15.179075 9.6915664,14.933825 7.8741069,13.74111 7.0290134,11.968349 6.6778724,11.130874 5.6610167,10.483883 4.8167397,11.078781 4.0268498,11.676592 3.3064221,12.406462 2.3594127,12.763827 1.6770132,13.073517 0.91423911,12.995512 0.19466041,12.946999 -0.02450478,12.486775 0.17543065,11.825613 0.10266992,11.28367 0.20984938,10.833426 -0.13131364,9.8127163 0.37849711,9.8006971 0.70497666,9.5402672 0.93460047,8.3518412 1.4481868,9.1337384 1.7242739,9.748424 2.5537538,9.3613469 2.1281947,8.7787857 2.3959593,8.0731983 2.8921564,8.9461799 2.750058,9.3620864 2.7754704,10.18434 3.1893755,8.7806892 3.5136079,9.4930561 3.586398,9.8804683 4.2196705,10.204708 4.0558125,9.5912007 3.7880487,9.1614308 4.1897339,8.4285486 4.5159839,9.1496651 4.8657187,9.6903553 5.0915634,8.8851088 5.5091854,8.8782306 5.5266917,8.5347528 4.5851519,8.8703245 4.8733782,8.2085936 4.6780348,7.8230541 3.7884946,7.9549256 3.8440094,7.2415729 3.7384447,6.40934 4.6911536,6.2295162 5.3035287,6.3386069 5.1554218,5.9541871 5.5221442,5.6469602 5.8123259,6.0936344 6.2186441,6.6186086 6.7576225,5.7130704 6.2593728,5.4014316 6.9312664,5.0675933 7.4587536,6.1953657 8.0397694,6.4945905 8.2831825,6.7771349 8.4991047,7.3435098 8.8534649,6.8477587 9.1911335,6.8998372 9.6362592,7.7855477 9.6043431,6.9588278 9.894756,6.7632277 10.447449,6.583884 9.7609965,6.4701577 9.1813924,6.2750383 10.249609,5.693673 9.4334175,5.6660741 8.8710084,5.6930865 8.0634248,5.3336122 8.5444949,4.6911823 8.2154756,4.0446033 7.2871506,4.1582878 6.6583896,4.1372881 4.7125508,4.2440872 3.0571178,5.5628112 1.9939327,7.1200381 1.409518,7.8752794 0.77575511,8.5915618 0.10946843,9.2753724 -0.04710374,8.5916398 0.42334132,8.102904 0.86865959,7.6657743 2.12855,6.203608 3.3481584,4.5062927 5.2659002,3.8809874 6.3157119,3.5573238 7.5474406,3.4766518 8.5337668,4.0295275 9.2337585,4.2795 8.87608,5.2713951 9.658252,5.2176405 10.332029,5.4639021 10.527535,6.2463885 10.648156,6.8647071 10.578752,7.4088697 9.9272752,7.1933293 9.8982185,7.73464 9.5298204,8.2279172 8.9505933,7.6434351 8.7783089,7.5742132 8.0509452,8.1179606 7.850854,6.3888703 7.3140859,7.3362501 6.6546041,8.5473235 6.9894976,10.119269 7.8855293,11.123784 c 0.9101195,1.079976 2.3869177,1.707179 3.7928807,1.445288 0.593208,-0.201053 0.977075,-0.74962 1.453498,-1.132903 0.992518,-0.927453 1.938663,-1.9026657 2.910843,-2.8510729 0.193224,0.7154192 -0.434785,1.1239466 -0.858864,1.5863099 -0.533006,0.554635 -1.070331,1.105335 -1.588636,1.673856 0.904149,-0.51943 1.442206,-1.51692 2.414019,-1.9368193 0.05684,0.9757173 0.05077,1.9546943 -0.0069,2.9302213 -0.454844,-0.03272 -0.460758,-1.26976 -0.940556,-0.532771 -0.224251,0.741626 1.248022,1.482717 0.105395,2.020888 -0.292219,0.54813 0.696116,-0.05524 0.865871,-0.18335 0.02353,0.605212 0.124936,1.460336 -0.524751,1.798362 -0.761219,0.192604 -1.557493,0.03603 -2.333998,0.07919 C 9.0755658,15.983735 4.9745146,15.999743 0.87700247,15.982967 0.42340197,15.88948 0.12266032,15.42308 0.10517524,14.979735 Z M 13.902398,14.528849 C 13.518495,14.128252 12.586165,14.108466 12.103139,13.619781 11.680642,13.352173 11.07304,12.985848 10.619123,13.1023 c 0.68475,0.503277 1.448428,0.90961 2.222619,1.260929 0.335853,0.129825 0.699782,0.206864 1.060656,0.16562 z"
       id="path14" />
  </g>
</svg>
