<?xml version="1.0" encoding="UTF-8" standalone="no"?>
<!-- Created with Inkscape (http://www.inkscape.org/) -->

<svg
   width="64mm"
   height="64mm"
   viewBox="0 0 64 64"
   version="1.1"
   id="svg1"
   inkscape:version="1.4.2 (ebf0e940, 2025-05-08)"
   sodipodi:docname="wave.svg"
   xml:space="preserve"
   xmlns:inkscape="http://www.inkscape.org/namespaces/inkscape"
   xmlns:sodipodi="http://sodipodi.sourceforge.net/DTD/sodipodi-0.dtd"
   xmlns="http://www.w3.org/2000/svg"
   xmlns:svg="http://www.w3.org/2000/svg"><sodipodi:namedview
     id="namedview1"
     pagecolor="#ffffff"
     bordercolor="#000000"
     borderopacity="0.25"
     inkscape:showpageshadow="2"
     inkscape:pageopacity="0.0"
     inkscape:pagecheckerboard="0"
     inkscape:deskcolor="#d1d1d1"
     inkscape:document-units="mm"
     inkscape:zoom="1.527331"
     inkscape:cx="90.026325"
     inkscape:cy="84.133693"
     inkscape:window-width="1120"
     inkscape:window-height="834"
     inkscape:window-x="117"
     inkscape:window-y="142"
     inkscape:window-maximized="0"
     inkscape:current-layer="layer1" /><defs
     id="defs1" /><g
     inkscape:label="Layer 1"
     inkscape:groupmode="layer"
     id="layer1"><rect
       style="fill:#1c4c84;fill-opacity:1;stroke:none;stroke-width:0.13645;stroke-linecap:round;stroke-linejoin:round"
       id="rect7"
       width="64"
       height="64"
       x="0"
       y="5.5511151e-17" /><path
       id="path6"
       style="fill:#ffffff;fill-opacity:1;stroke-width:0.132292;stroke-linecap:round;stroke-linejoin:round"
       d="M 27.837061,16.342672 C 20.237898,16.076831 13.381701,20.697687 8.9647232,26.583398 6.2852874,30.29039 3.3191777,33.784924 0.02842204,36.964152 -0.580179,38.861098 0.99104477,39.784473 2.135119,38.229678 c -0.6446965,-2.22178 1.8034596,-4.152726 3.5354129,-2.239707 0.4609251,1.604793 1.5819295,2.791274 2.7983438,0.869697 0.4330179,-1.219534 -1.8032594,-3.79404 1.1015992,-3.053986 2.3121071,0.724024 0.036221,4.721842 1.6062591,4.764386 0.19498,-3.533346 3.565656,-0.928617 3.692643,1.247651 3.189255,-0.478938 -1.888465,-5.518835 1.895123,-4.80719 1.153694,0.580784 2.062231,4.249492 2.605894,1.225494 0.565433,-0.980819 4.197984,-0.371374 1.807641,-1.681036 -2.134769,0.51579 -3.158344,-1.108782 -1.87482,-2.417931 -2.328491,-0.169133 -5.59077,-1.923102 -4.334458,-4.775585 0.891559,-2.67463 4.188533,-2.71469 6.084996,-2.12439 -1.916776,-1.490093 0.741864,-3.434346 1.910865,-1.395837 0.0027,2.512789 2.442366,-0.194621 2.810553,-0.896391 -2.759973,-0.712977 -0.567839,-3.529891 1.232851,-1.653391 0.86323,2.187712 3.830819,1.631144 4.034903,4.30688 2.625043,-0.764649 1.740004,4.809762 3.429906,1.591293 1.900564,-1.539243 3.543562,4.822747 3.467735,0.768631 -0.312681,-2.231723 4.20319,-0.297149 1.4967,-2.210436 -1.984735,0.486008 -2.652204,-2.359271 -0.374016,-2.200935 -1.222965,-2.493034 -4.167839,0.162658 -5.06008,-2.134931 -2.014452,-0.735244 -0.767353,-2.297352 0.126014,-2.551607 -0.913341,-2.373238 -4.16627,-2.331222 -6.292123,-2.517685 z m 36.154382,20.700545 c -3.399132,3.23696 -6.369539,6.90689 -9.835575,10.072253 2.668017,-1.631563 4.655874,-4.083895 6.84448,-6.250913 1.175885,-1.103132 3.668598,-1.114013 2.991095,-3.216964 0,-0.201459 0,-0.402917 0,-0.604376 z m -42.187606,6.176884 c -3.009743,0.0047 -4.735913,2.91788 -7.069964,4.382 -3.851816,3.129277 -8.970876,5.499509 -13.97836356,3.978213 -1.43552784,-0.171946 -0.46472403,2.70677 -0.7270874,3.970236 0.78202427,0.133148 3.96378836,-1.792304 5.37666306,0.01558 0.1703739,1.991613 4.5436917,2.623791 3.116597,-0.006 -2.8248818,-0.695136 -0.1893253,-3.421131 1.4031145,-1.493665 2.3796744,0.744515 -0.3253121,5.324665 2.2605064,4.620936 1.691627,-0.662554 2.406908,-0.583786 1.842265,-2.34921 3.456219,-1.600422 1.7985,3.848225 4.189576,4.976522 0.506734,0.838819 4.084915,2.967042 3.491351,2.055398 -1.788534,-1.639499 -4.971672,-4.336567 -3.533367,-6.91436 2.383121,0.178581 -0.04623,-1.237984 -0.457863,-2.278145 -1.515518,0.731885 -5.719311,-0.930428 -3.038584,-2.302764 1.93461,1.28708 2.13208,-0.178791 3.106443,-1.008611 2.642713,0.973522 0.233639,-3.870825 3.032479,-2.377071 0.528599,1.30796 1.460419,4.645853 2.68049,2.021876 1.51171,-0.315572 2.290445,2.912689 2.95403,0.755068 2.601482,0.191062 3.961319,3.172267 6.109223,4.453577 5.384062,4.372871 12.330848,6.424686 19.190533,6.679689 0.608268,-2.093943 -1.327306,-1.398758 -2.78902,-1.436398 -7.320975,-0.387118 -14.945136,-3.483401 -19.145456,-9.745486 -2.169641,-2.664967 -3.050832,-6.937412 -6.803305,-7.87798 -0.393787,-0.115382 -0.804776,-0.117133 -1.210261,-0.119373 z m 39.809973,4.786788 c -3.616636,0.99064 -0.876092,4.633417 0.987578,5.916425 0.446202,1.867603 -2.830728,3.682634 -2.778101,4.135793 1.720083,-0.172082 4.517708,-1.148892 4.176941,-3.300741 0,-1.14944 0,-2.29888 0,-3.44832 C 61.5402,51.207953 62.31643,48.759147 61.61381,48.006889 Z m -19.699573,4.00234 c 3.660495,2.534332 7.531091,4.936643 11.889197,6.038392 1.205582,-0.103748 3.459469,-0.311066 0.926409,-0.635164 -3.340378,-0.816141 -6.379954,-2.607451 -9.095374,-4.61288 -1.258774,-0.167685 -2.493795,-0.467148 -3.720232,-0.790348 z m 13.076205,8.193815 c -1.110897,0.291442 -2.239224,0.555348 -3.377576,0.674393 0.689674,0.649107 -0.762833,2.333419 0.821653,1.270212 1.446874,-0.849669 4.325678,-1.596113 5.229138,-1.928049 -0.890927,-0.0191 -1.782146,-0.01272 -2.673215,-0.01656 z" /><path
       style="fill:#f1c44f;fill-opacity:1;stroke:none;stroke-width:0.232864;stroke-linecap:round;stroke-linejoin:round"
       d="m 159.047,189.72514 c -28.4489,-3.29241 -53.15847,-28.14581 -54.79589,-55.11486 -0.5982,-9.85245 2.21486,-21.07237 6.57697,-26.23236 1.50342,-1.77842 4.34808,-3.35611 6.05125,-3.35611 1.07953,0 1.18377,0.17293 1.19311,1.97934 0.0393,7.61426 8.25824,11.37169 13.80117,6.30947 0.9987,-0.91208 1.00538,-0.91204 1.29714,0.007 1.10867,3.4931 5.21374,6.57643 8.78318,6.59706 4.34376,0.0251 9.17501,-4.72414 9.17501,-9.01928 v -1.61495 l 2.44508,0.22804 c 4.473,0.41717 7.12576,-2.57387 7.07732,-7.97987 -0.0297,-3.309464 -1.21021,-5.901016 -3.67335,-8.063683 -1.57614,-1.383866 -1.65749,-1.60199 -1.65749,-4.444122 0,-2.601309 -0.19625,-3.279731 -1.51362,-5.23242 -2.76823,-4.103255 -8.06521,-6.931546 -14.02391,-7.487975 l -2.85875,-0.266956 v -3.338175 c 0,-2.987892 -0.17105,-3.622819 -1.63005,-6.050765 C 129.87516,57.626905 116.95223,52.89806 99.20271,53.437918 85.185261,53.86426 72.917461,57.784913 59.360049,66.171181 48.700494,72.764916 39.571831,81.321441 26.136485,97.312472 12.953057,113.00367 3.388214,124.11558 1.6862449,125.71743 L 0,127.08532 V 0 h 241.88977 v 128.10174 l -16.17551,16.05445 c -19.74863,19.60083 -41.18531,40.31492 -46.6416,44.00294 -2.67597,1.80874 -11.778,2.52052 -20.02566,1.56601 z M 158.3689,129.028 c 3.80244,-3.80243 -3.18217,-12.39469 -7.38695,-9.08722 -1.51938,1.19515 -1.5939,2.67282 -0.28105,5.57309 2.05806,4.54655 5.19704,5.9851 7.668,3.51413 z"
       id="path13"
       transform="scale(0.26458333)"
       sodipodi:nodetypes="sssscscsscscsssscscssssccccsssssss" /></g></svg>
